<svg  viewBox="0 0 268 268" fill="none" xmlns="http://www.w3.org/2000/svg">
<path d="M3.09766 95.981C20.6495 91.457 32.5184 91.336 44.9061 95.981C60.7778 103.337 63.8747 116.886 76.6495 126.563C63.1005 126.563 70.0686 126.563 54.9711 126.563C26.6163 126.563 10.9734 121.865 3.09766 95.981Z" fill="#FFFDF6"/>
<path d="M1.71924 166.362C14.6576 153.668 24.8759 147.629 37.9264 145.457C55.3495 143.892 64.8061 154.077 80.708 156.071C68.9742 162.845 75.0088 159.361 61.934 166.91C37.378 181.087 21.4818 184.84 1.71924 166.362Z" fill="#FFFDF6"/>
<path d="M35.7161 228.002C40.5741 210.54 46.4038 200.201 56.6203 191.795C70.9263 181.728 84.2086 185.82 98.9769 179.596C92.2023 191.33 95.6864 185.295 88.1376 198.37C73.9603 222.926 62.0701 234.124 35.7161 228.002Z" fill="#FFFDF6"/>
<path d="M95.9795 264.386C91.4555 246.834 91.3346 234.965 95.9795 222.578C103.335 206.706 116.884 203.609 126.562 190.834C126.562 204.383 126.562 197.415 126.562 212.513C126.562 240.868 121.863 256.511 95.9795 264.386Z" fill="#FFFDF6"/>
<path d="M166.361 265.764C153.667 252.826 147.628 242.608 145.456 229.557C143.891 212.134 154.076 202.677 156.07 186.775C162.844 198.509 159.36 192.475 166.909 205.549C181.086 230.105 184.839 246.002 166.361 265.764Z" fill="#FFFDF6"/>
<path d="M228.002 231.766C210.54 226.908 200.201 221.079 191.795 210.862C181.728 196.556 185.82 183.274 179.596 168.506C191.33 175.28 185.295 171.796 198.37 179.345C222.926 193.522 234.124 205.412 228.002 231.766Z" fill="#FFFDF6"/>
<path d="M264.387 171.503C246.835 176.027 234.966 176.148 222.578 171.503C206.707 164.147 203.61 150.598 190.835 140.921C204.384 140.921 197.416 140.921 212.513 140.921C240.868 140.921 256.511 145.619 264.387 171.503Z" fill="#FFFDF6"/>
<path d="M265.763 101.121C252.825 113.815 242.607 119.854 229.556 122.026C212.133 123.591 202.676 113.406 186.774 111.412C198.508 104.638 192.474 108.122 205.548 100.573C230.104 86.3958 246.001 82.643 265.763 101.121Z" fill="#FFFDF6"/>
<path d="M231.766 39.48C226.908 56.9423 221.079 67.2815 210.862 75.6871C196.556 85.7546 183.274 81.6621 168.506 87.8867C175.28 76.1529 171.796 82.1874 179.345 69.1126C193.522 44.5567 205.412 33.3586 231.766 39.48Z" fill="#FFFDF6"/>
<path d="M171.503 3.09668C176.027 20.6485 176.148 32.5174 171.503 44.9051C164.147 60.7768 150.598 63.8737 140.921 76.6485C140.921 63.0995 140.921 70.0676 140.921 54.9701C140.921 26.6154 145.619 10.9724 171.503 3.09668Z" fill="#FFFDF6"/>
<path d="M101.122 1.71924C113.816 14.6576 119.855 24.8759 122.026 37.9264C123.592 55.3495 113.406 64.806 111.413 80.708C104.638 68.9742 108.122 75.0088 100.574 61.934C86.3963 37.378 82.6435 21.4818 101.122 1.71924Z" fill="#FFFDF6"/>
<path d="M39.48 35.7171C56.9423 40.5751 67.2815 46.4048 75.6871 56.6213C85.7546 70.9273 81.6621 84.2096 87.8867 98.9778C76.1529 92.2033 82.1874 95.6874 69.1126 88.1386C44.5567 73.9613 33.3586 62.071 39.48 35.7171Z" fill="#FFFDF6"/>
<path d="M3.0957 95.9805C20.6475 91.4565 32.5164 91.3355 44.9041 95.9805C60.7758 103.336 63.8728 116.885 76.6475 126.563C63.0985 126.563 70.0666 126.563 54.9691 126.563C26.6144 126.563 10.9714 121.864 3.0957 95.9805Z" fill="#FFFDF6"/>
</svg>
