<svg viewBox="0 0 392 145" fill="none" xmlns="http://www.w3.org/2000/svg">
<path d="M1.60352 55.911C10.6951 53.5676 16.8431 53.505 23.2597 55.911C31.4811 59.7211 33.0852 66.7393 39.7024 71.7521C32.6842 71.7521 36.2935 71.7521 28.4733 71.7521C13.7859 71.7521 5.68302 69.3185 1.60352 55.911Z" fill="#FFFDF6"/>
<path d="M0.890546 92.3686C7.59244 85.7934 12.8854 82.6652 19.6454 81.5405C28.6703 80.7295 33.5687 86.0054 41.8057 87.038C35.7277 90.5471 38.8535 88.7424 32.081 92.6526C19.3613 99.9963 11.1273 101.94 0.890546 92.3686Z" fill="#FFFDF6"/>
<path d="M18.4995 124.297C21.0159 115.252 24.0356 109.896 29.3276 105.542C36.7379 100.327 43.618 102.447 51.2677 99.2227C47.7586 105.301 49.5633 102.175 45.6532 108.947C38.3095 121.667 32.1505 127.468 18.4995 124.297Z" fill="#FFFDF6"/>
<path d="M49.7147 143.144C47.3713 134.052 47.3087 127.904 49.7147 121.487C53.5248 113.266 60.543 111.662 65.5558 105.045C65.5558 112.063 65.5558 108.454 65.5558 116.274C65.5558 130.961 63.1222 139.064 49.7147 143.144Z" fill="#FFFDF6"/>
<path d="M86.1733 143.858C79.5981 137.156 76.4699 131.863 75.3452 125.103C74.5342 116.078 79.8101 111.179 80.8427 102.942C84.3518 109.02 82.5471 105.895 86.4573 112.667C93.8009 125.387 95.7448 133.621 86.1733 143.858Z" fill="#FFFDF6"/>
<path d="M118.101 126.247C109.056 123.73 103.701 120.71 99.3467 115.418C94.1318 108.008 96.2517 101.128 93.0274 93.4784C99.1054 96.9875 95.9796 95.1828 102.752 99.0929C115.472 106.437 121.272 112.596 118.101 126.247Z" fill="#FFFDF6"/>
<path d="M136.947 95.0314C127.856 97.3748 121.708 97.4374 115.291 95.0314C107.07 91.2213 105.466 84.2031 98.8484 79.1903C105.867 79.1903 102.257 79.1903 110.078 79.1903C124.765 79.1903 132.868 81.6239 136.947 95.0314Z" fill="#FFFDF6"/>
<path d="M137.664 58.5747C130.962 65.1499 125.669 68.2782 118.909 69.4028C109.884 70.2138 104.986 64.9379 96.749 63.9054C102.827 60.3963 99.7011 62.2009 106.474 58.2908C119.193 50.9471 127.427 49.0032 137.664 58.5747Z" fill="#FFFDF6"/>
<path d="M120.051 26.6456C117.535 35.6908 114.515 41.0464 109.223 45.4004C101.813 50.6152 94.9328 48.4954 87.283 51.7196C90.7922 45.6417 88.9875 48.7675 92.8976 41.9949C100.241 29.2753 106.4 23.4748 120.051 26.6456Z" fill="#FFFDF6"/>
<path d="M88.8341 7.7998C91.1775 16.8914 91.2402 23.0394 88.8341 29.456C85.024 37.6773 78.0058 39.2815 72.993 45.8987C72.993 38.8805 72.993 42.4898 72.993 34.6695C72.993 19.9822 75.4266 11.8793 88.8341 7.7998Z" fill="#FFFDF6"/>
<path d="M52.3814 7.08586C58.9566 13.7878 62.0848 19.0807 63.2095 25.8407C64.0205 34.8656 58.7446 39.764 57.712 48.001C54.2029 41.9231 56.0076 45.0489 52.0974 38.2763C44.7537 25.5566 42.8099 17.3226 52.3814 7.08586Z" fill="#FFFDF6"/>
<path d="M20.4473 24.6958C29.4926 27.2122 34.8482 30.2319 39.2022 35.5239C44.417 42.9342 42.2971 49.8143 45.5214 57.464C39.4434 53.9549 42.5692 55.7596 35.7967 51.8495C23.077 44.5058 17.2765 38.3468 20.4473 24.6958Z" fill="#FFFDF6"/>
<path d="M1.60352 55.911C10.6951 53.5676 16.8431 53.505 23.2597 55.911C31.4811 59.7211 33.0852 66.7393 39.7024 71.7521C32.6842 71.7521 36.2935 71.7521 28.4733 71.7521C13.7859 71.7521 5.68302 69.3185 1.60352 55.911Z" fill="#FFFDF6"/>
<path d="M202.127 62.3856C207.623 61.8114 211.642 59.6788 214.185 55.9878V57.4642C214.021 59.0226 213.939 61.6474 213.939 65.3384C213.939 69.0294 214.021 71.6952 214.185 73.3357V74.8121C211.724 71.2851 207.705 69.1525 202.127 68.4143C198.436 68.0042 192.859 67.7991 185.395 67.7991V84.4088C185.395 88.4279 185.518 92.8982 185.764 97.8196C185.846 100.69 186.42 102.618 187.486 103.602C188.634 104.504 190.685 104.956 193.638 104.956C199.215 104.956 203.563 104.751 206.68 104.34C212.913 103.438 217.671 98.3937 220.952 89.2071C221.28 91.1757 221.444 93.0622 221.444 94.8667C221.444 99.7061 220.788 104.874 219.475 110.369C211.109 109.959 198.149 109.754 180.596 109.754C179.612 109.754 178.012 109.836 175.798 110C173.665 110.082 172.435 110.123 172.107 110.123H170.63C173.337 107.334 174.855 102.946 175.183 96.9583C175.429 92.8572 175.552 88.2639 175.552 83.1784V50.4512C175.552 45.3658 175.429 40.7725 175.183 36.6713C174.855 30.6836 173.337 26.2954 170.63 23.5066H172.107C172.435 23.5066 173.665 23.5886 175.798 23.7527C178.012 23.8347 179.612 23.8757 180.596 23.8757H203.235C209.14 23.8757 213.693 23.7527 216.891 23.5066C217.548 27.0336 217.876 30.6016 217.876 34.2106C217.876 36.5893 217.671 39.3371 217.261 42.4539C213.651 34.6617 208.976 30.2735 203.235 29.2892C200.364 28.8791 196.837 28.6741 192.654 28.6741C189.783 28.6741 187.937 29.0432 187.117 29.7814C186.379 30.4376 185.928 32.037 185.764 34.5797C185.518 37.1224 185.395 41.3466 185.395 47.2523V63.0007C192.859 63.0007 198.436 62.7957 202.127 62.3856ZM250.755 59.4327C246.326 59.4327 242.593 61.3603 239.559 65.2154C236.606 68.9884 235.129 74.1149 235.129 80.5947C235.129 87.8127 236.729 93.5544 239.928 97.8196C243.209 102.003 247.392 104.094 252.477 104.094C256.578 104.094 259.818 102.782 262.197 100.157C264.576 97.5325 265.765 94.0055 265.765 89.5762V76.7806C265.765 71.121 264.33 66.8148 261.459 63.862C258.67 60.9091 255.102 59.4327 250.755 59.4327ZM265.765 57.9563V47.2523C265.765 42.1669 265.642 38.3118 265.396 35.687C265.232 33.0623 264.822 31.1347 264.166 29.9044C263.591 28.592 262.402 27.3207 260.598 26.0903C265.601 23.9577 270.399 21.415 274.993 18.4622C274.911 22.3173 274.788 26.1313 274.624 29.9044C274.542 33.6775 274.459 36.3842 274.377 38.0247C274.377 39.5831 274.377 40.4854 274.377 40.7315V83.6706C274.377 88.4279 274.5 92.119 274.747 94.7437C275.157 99.337 276.756 102.536 279.545 104.34C274.542 106.637 270.194 108.975 266.503 111.353L266.134 100.649C264.412 103.93 262.033 106.637 258.998 108.77C255.963 110.902 252.969 111.969 250.017 111.969C243.455 111.969 237.836 109.426 233.161 104.34C228.486 99.255 226.148 92.365 226.148 83.6706C226.148 74.9761 228.691 67.8401 233.776 62.2625C238.861 56.685 244.849 53.8962 251.739 53.8962C257.399 53.8962 262.074 55.2496 265.765 57.9563ZM283.505 83.9166C283.505 75.3862 286.089 68.2502 291.256 62.5086C296.424 56.767 302.822 53.8962 310.45 53.8962C316.355 53.8962 321.277 55.8647 325.214 59.8018C329.233 63.5749 331.243 68.4553 331.243 74.443C331.243 75.5093 331.161 76.4525 330.996 77.2728H293.102C292.938 78.5851 292.856 80.1436 292.856 81.9481C292.856 88.3459 294.537 93.5133 297.9 97.4505C301.263 101.306 305.651 103.233 311.065 103.233C314.838 103.233 318.201 102.372 321.154 100.649C324.189 98.8449 327.182 95.892 330.135 91.7909C329.643 97.6965 327.511 102.536 323.737 106.309C319.964 110.082 315.207 111.969 309.465 111.969C301.755 111.969 295.521 109.221 290.764 103.725C285.925 98.1477 283.505 91.5448 283.505 83.9166ZM293.963 72.3514H320.416C320.333 68.4143 319.103 65.2974 316.724 63.0007C314.428 60.6221 311.434 59.4327 307.743 59.4327C304.216 59.4327 301.222 60.6221 298.761 63.0007C296.301 65.3794 294.701 68.4963 293.963 72.3514ZM383.01 72.3514V86.5004C383.01 91.0116 383.092 94.9898 383.256 98.4347C383.667 103.52 385.02 107.416 387.317 110.123H385.963C385.143 110.123 383.831 110.041 382.026 109.877C380.222 109.713 379.114 109.631 378.704 109.631C378.212 109.631 377.064 109.713 375.259 109.877C373.455 110.041 372.142 110.123 371.322 110.123H370.092C372.388 107.498 373.701 103.602 374.029 98.4347C374.275 95.81 374.398 91.8319 374.398 86.5004V73.4587C374.398 70.0137 373.414 67.2249 371.445 65.0923C369.559 62.9597 366.975 61.8934 363.694 61.8934C359.511 61.8934 356.148 63.1648 353.605 65.7075C351.144 68.2502 349.914 71.5311 349.914 75.5503V86.5004C349.914 91.0116 349.996 94.9898 350.16 98.4347C350.57 103.52 351.924 107.416 354.22 110.123H352.867C352.047 110.123 350.734 110.041 348.93 109.877C347.125 109.713 346.018 109.631 345.608 109.631C345.116 109.631 343.967 109.713 342.163 109.877C340.358 110.041 339.046 110.123 338.226 110.123H336.995C339.292 107.498 340.604 103.602 340.933 98.4347C341.179 95.81 341.302 91.8319 341.302 86.5004V83.4245C341.302 78.3391 341.179 74.484 340.933 71.8592C340.768 69.2345 340.358 67.307 339.702 66.0766C339.128 64.7642 337.939 63.4929 336.134 62.2625C341.138 60.1299 345.936 57.5872 350.529 54.6344C350.037 58.5715 349.791 62.1805 349.791 65.4614C353.81 57.7513 359.347 53.8962 366.401 53.8962C372.634 53.8962 377.31 56.4389 380.427 61.5243C382.149 64.6412 383.01 68.2502 383.01 72.3514Z" fill="#FFFDF6"/>
<path d="M174.906 121.132C175.471 121.132 175.983 121.124 176.441 121.106C176.918 121.088 177.482 121.079 178.135 121.079C179.723 121.079 180.993 121.521 181.946 122.403C182.916 123.285 183.401 124.458 183.401 125.922C183.401 127.475 182.855 128.745 181.761 129.733C180.684 130.686 179.344 131.162 177.738 131.162C176.538 131.162 175.692 130.933 175.198 130.474C177.156 130.474 178.664 130.051 179.723 129.204C180.799 128.339 181.337 127.219 181.337 125.843C181.337 124.661 180.984 123.743 180.279 123.091C179.591 122.438 178.603 122.112 177.315 122.112C176.75 122.112 176.344 122.2 176.097 122.376C175.868 122.553 175.692 122.905 175.568 123.435C175.445 123.964 175.268 124.873 175.039 126.161L173.663 133.888C173.31 135.917 173.133 137.143 173.133 137.567C173.133 138.272 173.46 138.978 174.113 139.684H173.795C173.566 139.684 173.204 139.675 172.71 139.657C172.216 139.622 171.925 139.604 171.837 139.604C171.748 139.604 171.475 139.622 171.016 139.657C170.575 139.675 170.24 139.684 170.011 139.684H169.746C170.293 139.084 170.716 138.14 171.016 136.852C171.246 135.811 171.44 134.823 171.598 133.888L172.842 126.849C173.213 124.767 173.398 123.541 173.398 123.17C173.398 122.676 173.142 121.97 172.631 121.053H172.869C173.098 121.053 173.469 121.071 173.98 121.106C174.51 121.124 174.818 121.132 174.906 121.132ZM183.006 137.09C183.006 137.955 183.306 138.387 183.906 138.387C184.435 138.387 185.123 137.919 185.97 136.984C186.799 136.085 187.549 134.797 188.219 133.121C188.502 132.38 188.775 131.533 189.04 130.58C188.687 129.68 188.211 129.23 187.611 129.23C186.834 129.23 186.049 129.768 185.255 130.845C184.567 131.762 184.02 132.785 183.615 133.915C183.209 135.044 183.006 136.102 183.006 137.09ZM181.312 137.593C181.312 136.482 181.612 135.238 182.212 133.862C182.83 132.433 183.571 131.198 184.435 130.157C185.776 128.551 186.993 127.748 188.087 127.748C188.793 127.748 189.393 128.048 189.887 128.648L191.713 128.119C190.972 130.201 190.434 131.762 190.098 132.803C190.081 132.856 189.719 134.109 189.013 136.561C188.837 137.161 188.749 137.628 188.749 137.964C188.749 138.14 188.828 138.228 188.987 138.228C189.622 138.228 190.583 137.32 191.871 135.502C191.642 136.79 191.139 137.858 190.363 138.705C189.587 139.551 188.863 139.975 188.193 139.975C187.452 139.975 187.081 139.578 187.081 138.784C187.081 138.149 187.293 137.17 187.717 135.846C186.058 138.669 184.611 140.081 183.376 140.081C182.741 140.081 182.238 139.86 181.868 139.419C181.497 138.96 181.312 138.352 181.312 137.593ZM199.869 131.162C199.534 129.998 199.119 129.416 198.625 129.416C198.308 129.416 197.964 129.645 197.593 130.104C197.187 130.58 196.746 131.471 196.27 132.777C195.793 134.082 195.379 135.635 195.026 137.434L194.55 139.869L192.697 139.578C193.297 137.055 193.676 135.397 193.835 134.603L194.576 130.898C194.682 130.368 194.735 129.963 194.735 129.68C194.735 129.416 194.62 129.283 194.391 129.283C193.967 129.283 193.253 130.015 192.247 131.48C192.494 130.227 192.9 129.266 193.465 128.595C194.047 127.925 194.656 127.59 195.291 127.59C195.608 127.59 195.864 127.731 196.058 128.013C196.27 128.278 196.376 128.631 196.376 129.072C196.376 129.548 196.261 130.368 196.032 131.533C196.614 130.086 197.17 129.072 197.699 128.489C198.228 127.89 198.819 127.59 199.472 127.59C199.984 127.59 200.425 127.695 200.795 127.907C200.83 128.084 200.848 128.331 200.848 128.648C200.848 129.671 200.522 130.509 199.869 131.162ZM203.311 134.523L202.04 139.869L200.241 139.419C200.647 138.025 201.07 136.42 201.511 134.603L203.84 124.784C204.105 123.655 204.237 122.764 204.237 122.112C204.237 121.512 203.937 120.885 203.337 120.233L206.883 120.18C206.513 121.274 206.098 122.8 205.64 124.758L204.21 130.686C205.551 128.622 206.813 127.59 207.995 127.59C208.612 127.59 209.133 127.81 209.556 128.251C209.98 128.675 210.191 129.239 210.191 129.945C210.191 130.809 209.856 131.55 209.186 132.168C208.515 132.768 207.395 133.306 205.825 133.782C206.142 135.105 206.522 136.279 206.963 137.302C207.139 137.708 207.289 137.99 207.413 138.149C207.536 138.29 207.695 138.36 207.889 138.36C208.383 138.36 209.106 137.39 210.059 135.449C209.953 136.755 209.653 137.831 209.159 138.678C208.683 139.507 208.136 139.922 207.518 139.922C206.742 139.922 206.116 139.419 205.64 138.413C204.916 136.878 204.369 135.273 203.999 133.597C205.763 133.032 206.945 132.477 207.545 131.93C208.18 131.365 208.498 130.792 208.498 130.21C208.498 129.892 208.401 129.636 208.207 129.442C208.012 129.23 207.757 129.125 207.439 129.125C206.716 129.125 205.948 129.61 205.137 130.58C204.308 131.568 203.699 132.882 203.311 134.523ZM224.976 127.193L224.685 128.701C223.874 128.701 223.009 128.525 222.092 128.172C220.963 128.542 220.054 129.16 219.366 130.024C218.695 130.889 218.36 131.939 218.36 133.174C218.36 134.656 218.854 135.864 219.842 136.799C220.813 137.717 222.109 138.175 223.732 138.175C225.197 138.175 226.335 137.84 227.146 137.17C227.958 136.482 228.364 135.635 228.364 134.629C228.364 133.782 228.117 133.112 227.623 132.618C227.146 132.124 226.467 131.877 225.585 131.877C225.126 131.877 224.8 131.947 224.606 132.089C224.429 132.212 224.341 132.433 224.341 132.75C224.341 133.209 224.544 133.588 224.95 133.888C224.597 134.417 223.971 134.7 223.071 134.735C222.7 134.311 222.515 133.853 222.515 133.359C222.515 131.718 223.565 130.898 225.664 130.898C226.176 130.898 227.138 131.048 228.549 131.348C229.219 131.489 229.766 131.559 230.19 131.559C231.107 131.559 231.566 131.233 231.566 130.58C231.566 129.945 231.178 129.442 230.401 129.072C230.895 128.489 231.522 128.163 232.28 128.092C232.863 128.569 233.154 129.186 233.154 129.945C233.154 130.721 232.88 131.374 232.333 131.903C231.804 132.433 231.107 132.697 230.243 132.697C229.996 132.697 229.625 132.662 229.131 132.591C229.449 133.174 229.608 133.879 229.608 134.708C229.608 135.961 229.025 137.161 227.861 138.308C226.732 139.437 225.153 140.001 223.124 140.001C221.007 140.001 219.348 139.357 218.149 138.069C216.967 136.764 216.375 135.326 216.375 133.756C216.375 130.598 218.034 128.516 221.351 127.51C220.574 126.84 220.186 126.019 220.186 125.049C220.186 123.814 220.645 122.791 221.562 121.979C222.497 121.132 223.777 120.709 225.4 120.709C226.599 120.709 227.579 121.027 228.337 121.662C229.114 122.297 229.502 123.108 229.502 124.096C229.502 124.59 229.466 124.952 229.396 125.181C229.078 125.323 228.681 125.393 228.205 125.393C227.817 125.393 227.429 125.349 227.04 125.261C227.34 124.767 227.49 124.282 227.49 123.805C227.49 122.517 226.776 121.873 225.347 121.873C224.288 121.873 223.433 122.2 222.78 122.853C222.127 123.505 221.801 124.335 221.801 125.34C221.801 126.064 222.021 126.672 222.462 127.166C223.221 127.096 223.688 127.06 223.865 127.06C224.288 127.06 224.659 127.104 224.976 127.193ZM247.269 138.89C249.668 138.89 251 138.043 251.265 136.349C251.318 135.979 251.406 135.229 251.53 134.1C251.547 134.029 251.556 133.87 251.556 133.623C251.556 133.076 251.459 132.644 251.265 132.327C251.071 131.991 250.692 131.639 250.127 131.268H250.471C250.718 131.268 251.097 131.295 251.609 131.348C252.121 131.383 252.412 131.4 252.482 131.4C252.571 131.4 252.835 131.383 253.276 131.348C253.717 131.295 254.053 131.268 254.282 131.268H254.626C254.044 131.991 253.647 132.935 253.435 134.1C253.329 134.7 253.215 135.458 253.091 136.376C253.02 136.87 252.968 137.575 252.932 138.493C251.045 139.551 249.13 140.081 247.19 140.081C244.561 140.081 242.514 139.384 241.05 137.99C239.586 136.596 238.853 134.664 238.853 132.194C238.853 130.624 239.144 129.116 239.727 127.669C240.309 126.205 241.094 124.97 242.082 123.964C243.052 122.941 244.164 122.147 245.416 121.582C246.687 121 247.966 120.709 249.254 120.709C251.653 120.709 253.559 121.282 254.97 122.429C254.899 124.035 254.608 125.464 254.097 126.716C253.673 125.199 253.276 124.149 252.906 123.567C252.182 122.473 250.956 121.926 249.227 121.926C246.987 121.926 245.064 122.905 243.458 124.864C241.853 126.787 241.05 129.23 241.05 132.194C241.05 134.364 241.588 136.023 242.664 137.17C243.74 138.316 245.275 138.89 247.269 138.89ZM256.876 137.09C256.876 137.955 257.176 138.387 257.776 138.387C258.305 138.387 258.993 137.919 259.84 136.984C260.669 136.085 261.419 134.797 262.089 133.121C262.372 132.38 262.645 131.533 262.91 130.58C262.557 129.68 262.08 129.23 261.481 129.23C260.704 129.23 259.919 129.768 259.125 130.845C258.437 131.762 257.89 132.785 257.485 133.915C257.079 135.044 256.876 136.102 256.876 137.09ZM255.182 137.593C255.182 136.482 255.482 135.238 256.082 133.862C256.699 132.433 257.44 131.198 258.305 130.157C259.646 128.551 260.863 127.748 261.957 127.748C262.663 127.748 263.262 128.048 263.756 128.648L265.583 128.119C264.842 130.201 264.303 131.762 263.968 132.803C263.951 132.856 263.589 134.109 262.883 136.561C262.707 137.161 262.619 137.628 262.619 137.964C262.619 138.14 262.698 138.228 262.857 138.228C263.492 138.228 264.453 137.32 265.741 135.502C265.512 136.79 265.009 137.858 264.233 138.705C263.457 139.551 262.733 139.975 262.063 139.975C261.322 139.975 260.951 139.578 260.951 138.784C260.951 138.149 261.163 137.17 261.586 135.846C259.928 138.669 258.481 140.081 257.246 140.081C256.611 140.081 256.108 139.86 255.738 139.419C255.367 138.96 255.182 138.352 255.182 137.593ZM273.739 131.162C273.404 129.998 272.989 129.416 272.495 129.416C272.177 129.416 271.833 129.645 271.463 130.104C271.057 130.58 270.616 131.471 270.14 132.777C269.663 134.082 269.249 135.635 268.896 137.434L268.42 139.869L266.567 139.578C267.167 137.055 267.546 135.397 267.705 134.603L268.446 130.898C268.552 130.368 268.605 129.963 268.605 129.68C268.605 129.416 268.49 129.283 268.261 129.283C267.837 129.283 267.123 130.015 266.117 131.48C266.364 130.227 266.77 129.266 267.335 128.595C267.917 127.925 268.525 127.59 269.161 127.59C269.478 127.59 269.734 127.731 269.928 128.013C270.14 128.278 270.246 128.631 270.246 129.072C270.246 129.548 270.131 130.368 269.902 131.533C270.484 130.086 271.039 129.072 271.569 128.489C272.098 127.89 272.689 127.59 273.342 127.59C273.854 127.59 274.295 127.695 274.665 127.907C274.7 128.084 274.718 128.331 274.718 128.648C274.718 129.671 274.392 130.509 273.739 131.162ZM284.457 124.758L281.493 135.873C281.211 136.878 281.07 137.514 281.07 137.778C281.07 137.972 281.167 138.069 281.361 138.069C281.89 138.069 282.922 137.161 284.457 135.344C284.051 136.649 283.452 137.743 282.658 138.625C281.899 139.49 281.193 139.922 280.541 139.922C280.205 139.922 279.923 139.825 279.694 139.631C279.464 139.419 279.35 139.137 279.35 138.784C279.35 138.166 279.57 137.055 280.011 135.449C278.37 138.537 276.844 140.081 275.433 140.081C274.727 140.081 274.18 139.851 273.792 139.393C273.404 138.934 273.21 138.316 273.21 137.54C273.21 136.499 273.519 135.264 274.136 133.835C274.754 132.424 275.521 131.189 276.439 130.13C277.779 128.542 279.12 127.748 280.461 127.748C280.955 127.748 281.405 127.863 281.811 128.092L282.711 124.758C282.993 123.788 283.134 122.905 283.134 122.112C283.134 121.512 282.834 120.885 282.234 120.233L285.86 120.18C285.26 121.997 284.792 123.523 284.457 124.758ZM274.877 137.037C274.877 137.937 275.221 138.387 275.909 138.387C276.544 138.387 277.312 137.849 278.212 136.773C279.111 135.679 279.941 134.144 280.699 132.168C280.858 131.78 281.07 131.021 281.334 129.892C280.893 129.486 280.452 129.283 280.011 129.283C279.006 129.283 278.088 129.804 277.259 130.845C276.536 131.744 275.953 132.768 275.512 133.915C275.089 135.044 274.877 136.085 274.877 137.037ZM292.575 129.548C292.575 130.571 292.045 131.506 290.987 132.353C289.946 133.182 288.376 133.791 286.276 134.179C286.064 134.938 285.959 135.696 285.959 136.455C285.959 137.725 286.347 138.36 287.123 138.36C287.652 138.36 288.199 138.113 288.764 137.619C289.346 137.125 290.078 136.252 290.96 135C290.607 136.587 290.034 137.831 289.24 138.731C288.429 139.631 287.591 140.081 286.726 140.081C285.967 140.081 285.368 139.825 284.927 139.313C284.485 138.784 284.265 138.069 284.265 137.17C284.265 135.723 284.6 134.232 285.271 132.697C285.941 131.18 286.779 129.954 287.785 129.019C288.79 128.066 289.752 127.59 290.669 127.59C291.269 127.59 291.737 127.775 292.072 128.145C292.407 128.516 292.575 128.983 292.575 129.548ZM290.113 128.939C289.461 128.939 288.799 129.363 288.129 130.21C287.441 131.074 286.902 132.106 286.514 133.306C289.408 132.53 290.854 131.374 290.854 129.839C290.854 129.239 290.607 128.939 290.113 128.939ZM294.07 134.576L294.944 130.898C295.085 130.333 295.155 129.927 295.155 129.68C295.155 129.416 295.041 129.283 294.811 129.283C294.388 129.283 293.656 130.015 292.615 131.48C292.791 130.315 293.188 129.372 293.806 128.648C294.441 127.942 295.041 127.59 295.605 127.59C295.958 127.59 296.241 127.731 296.452 128.013C296.682 128.278 296.796 128.631 296.796 129.072C296.796 129.566 296.69 130.236 296.479 131.083C297.996 128.754 299.337 127.59 300.501 127.59C301.083 127.59 301.551 127.784 301.904 128.172C302.274 128.542 302.46 129.045 302.46 129.68C302.46 130.262 302.327 130.959 302.063 131.771C301.022 134.929 300.422 136.799 300.263 137.381C300.192 137.593 300.157 137.787 300.157 137.964C300.157 138.14 300.237 138.228 300.395 138.228C300.96 138.228 301.86 137.408 303.095 135.767C302.812 137.055 302.301 138.069 301.56 138.81C300.854 139.551 300.175 139.922 299.522 139.922C299.187 139.922 298.905 139.807 298.675 139.578C298.464 139.348 298.358 139.084 298.358 138.784C298.358 138.272 298.587 137.275 299.046 135.793L300.342 131.744C300.537 131.056 300.634 130.518 300.634 130.13C300.634 129.583 300.36 129.31 299.813 129.31C299.178 129.31 298.446 129.777 297.617 130.712C296.787 131.647 296.188 132.909 295.817 134.497L294.547 139.869L292.694 139.419C293.382 137.108 293.841 135.494 294.07 134.576Z" fill="#FFFDF6"/>
</svg>
